<svg xmlns="http://www.w3.org/2000/svg" xmlns:xlink="http://www.w3.org/1999/xlink" width="500" zoomAndPan="magnify" viewBox="0 0 375 374.999991" height="500" preserveAspectRatio="xMidYMid meet" version="1.0"><defs><clipPath id="3fc1260b36"><path d="M 0 11.015625 L 354 11.015625 L 354 364.265625 L 0 364.265625 Z M 0 11.015625 " clip-rule="nonzero"/></clipPath></defs><path fill="#000000" d="M 168.472656 289.621094 C 167.277344 289.621094 166.3125 288.203125 166.3125 286.464844 L 166.3125 272.324219 L 163.707031 271.773438 C 137.042969 266.113281 117.113281 245.335938 115.25 221.246094 C 115.035156 218.515625 115.390625 217.324219 116.890625 215.6875 C 118.277344 214.1875 121.363281 214.0625 124.398438 214.0625 L 136.804688 214.0625 C 142.472656 214.0625 145.542969 215.945312 145.921875 219.65625 C 147.339844 233.425781 161.601562 244.210938 178.398438 244.210938 C 184.839844 244.210938 191.0625 242.660156 196.402344 239.726562 C 200.617188 237.410156 203.339844 233.742188 204.078125 229.390625 C 205.082031 223.457031 201.644531 217.292969 195.519531 214.042969 L 142.132812 185.757812 C 141.507812 185.425781 140.898438 185.050781 140.328125 184.632812 C 127.660156 175.484375 120.808594 161.164062 121.992188 146.324219 C 123.167969 131.601562 132.128906 118.453125 145.972656 111.15625 C 151.476562 108.257812 157.4375 106.121094 163.699219 104.808594 L 166.3125 104.261719 L 166.3125 88.484375 C 166.3125 86.796875 167.277344 85.429688 168.472656 85.429688 L 187.570312 85.429688 C 188.777344 85.429688 189.730469 86.769531 189.730469 88.484375 L 189.730469 104.148438 L 192.351562 104.6875 C 203.621094 107.003906 213.757812 112.171875 221.671875 119.628906 C 231.695312 129.066406 237.726562 141.773438 238.660156 155.402344 C 238.855469 158.214844 238.566406 159.21875 237.105469 160.78125 C 235.664062 162.332031 232.285156 162.535156 229.503906 162.535156 L 217.113281 162.535156 C 211.378906 162.535156 208.304688 160.582031 207.980469 156.734375 C 206.757812 142.398438 194.597656 132.382812 178.398438 132.382812 C 172.179688 132.382812 166.132812 133.839844 160.917969 136.589844 C 156.039062 139.15625 153.015625 143.507812 152.613281 148.523438 C 152.359375 151.65625 153.125 154.671875 154.824219 157.25 C 156.085938 159.167969 157.886719 160.757812 160.171875 161.96875 L 210.523438 188.644531 C 227.851562 197.824219 237.441406 216.058594 234.394531 234.015625 C 232.199219 246.964844 223.972656 258.226562 211.820312 264.902344 C 205.835938 268.183594 199.292969 270.550781 192.371094 271.929688 L 189.730469 272.457031 L 189.730469 286.464844 C 189.730469 288.203125 188.757812 289.621094 187.570312 289.621094 L 168.472656 289.621094 " fill-opacity="1" fill-rule="nonzero"/><g clip-path="url(#3fc1260b36)"><path fill="#000000" d="M 284.050781 299.078125 C 256.234375 325.902344 218.433594 342.421875 176.847656 342.421875 C 91.597656 342.421875 22.242188 273.015625 22.242188 187.695312 C 22.242188 102.375 91.597656 32.96875 176.847656 32.96875 C 262.097656 32.96875 331.453125 102.375 331.453125 187.695312 C 331.453125 193.027344 331.183594 198.296875 330.652344 203.488281 L 352.644531 203.488281 C 353.109375 198.285156 353.355469 193.019531 353.355469 187.695312 C 353.355469 90.289062 274.175781 11.046875 176.847656 11.046875 C 79.519531 11.046875 0.339844 90.289062 0.339844 187.695312 C 0.339844 285.101562 79.519531 364.34375 176.847656 364.34375 C 224.089844 364.34375 267.054688 345.671875 298.765625 315.320312 L 284.050781 299.078125 " fill-opacity="1" fill-rule="nonzero"/></g><path fill="#000000" d="M 353.488281 275.03125 L 353.488281 212.257812 L 295.261719 212.257812 L 295.261719 275.03125 L 274.085938 275.03125 L 324.375 330.527344 L 374.660156 275.03125 L 353.488281 275.03125 " fill-opacity="1" fill-rule="nonzero"/></svg>